<svg version="1.1" xmlns="http://www.w3.org/2000/svg" xmlns:xlink="http://www.w3.org/1999/xlink" width="51.3333" height="49.6667" viewBox="0,0,51.3333,49.6667"><g transform="translate(-214.33335,-155.16665)"><g data-paper-data="{&quot;isPaintingLayer&quot;:true}" fill-rule="nonzero" stroke-linecap="butt" stroke-linejoin="miter" stroke-miterlimit="10" stroke-dasharray="" stroke-dashoffset="0" style="mix-blend-mode: normal"><path d="M264.66665,179.99995c0,13.1628 -11.0436,23.8334 -24.6666,23.8334c-13.623,0 -24.6667,-10.6706 -24.6667,-23.8334c0,-13.1628 11.0436,-23.8333 24.6667,-23.8333c13.623,0 24.6666,10.6705 24.6666,23.8333z" fill="#9966ff" stroke="#000000" stroke-width="2"/><path d="M257.72393,182.0616c2.3717,0.7906 1.5811,3.1623 1.5811,3.1623l-0.7405,2.1942c-1.2748,2.9747 -2.0323,5.8741 -4.9444,7.7838c-2.0691,1.357 -4.0747,1.4358 -6.3937,1.7142c-6.2888,0.7549 -14.3747,-0.1911 -19.3271,-4.6504c-0.1381,-0.1243 -3.3195,-3.9515 -3.5532,-4.2319c0,0 -1.6005,-1.9205 0.3201,-3.521c1.9205,-1.6005 3.521,0.3201 3.521,0.3201c1.0431,1.2517 1.9265,2.6519 3.1135,3.7681c3.7455,3.522 10.5929,3.8946 15.3395,3.3496c1.372,-0.1576 3.0296,-0.1842 4.273,-0.9525c1.7647,-1.0906 2.305,-3.7981 3.0556,-5.5496l0.5928,-1.8057c0,0 0.7906,-2.3717 3.1623,-1.5812z" fill="#000000" stroke="none" stroke-width="0.5"/><path d="M233.76663,173.1c0,-1.3807 1.1193,-2.5 2.5,-2.5c1.3808,0 2.5,1.1193 2.5,2.5c0,1.3807 -1.1192,2.5 -2.5,2.5c-1.3807,0 -2.5,-1.1193 -2.5,-2.5z" fill="#000000" stroke="none" stroke-width="0.5"/><path d="M248.43333,172.7667c0,-1.3807 1.1193,-2.5 2.5,-2.5c1.3807,0 2.5,1.1193 2.5,2.5c0,1.3807 -1.1193,2.5 -2.5,2.5c-1.3807,0 -2.5,-1.1193 -2.5,-2.5z" fill="#000000" stroke="none" stroke-width="0.5"/></g></g></svg>