<svg version="1.1" xmlns="http://www.w3.org/2000/svg" xmlns:xlink="http://www.w3.org/1999/xlink" width="51.3333" height="56.43703" viewBox="0,0,51.3333,56.43703"><g transform="translate(-214.33333,-148.39634)"><g data-paper-data="{&quot;isPaintingLayer&quot;:true}" fill-rule="nonzero" stroke-linecap="butt" stroke-linejoin="miter" stroke-miterlimit="10" stroke-dasharray="" stroke-dashoffset="0" style="mix-blend-mode: normal"><g data-paper-data="{&quot;index&quot;:null}"><path d="M230.9122,152.71874c0.47859,-0.36886 2.73362,-2.33598 3.63782,-2.33598c1.33165,0 3.37201,-1.71909 4.42001,-1.10316c1.90134,1.11745 1.08832,3.88709 1.08832,6.1325c0,1.84768 -0.70489,2.48683 -1.47646,3.42934c-0.68291,0.83421 -1.95296,2.07899 -3.71254,2.07899c-3.7476,0 -5.18901,0.52932 -5.18901,-2.95374c0,-2.64269 -0.27317,-4.088 1.23186,-5.24795z" fill="#09e800" stroke="#000000" stroke-width="1.5"/><path d="M229.86347,159.32381l0.36724,-1.04625c2.06777,-2.06777 6.39342,-4.83901 7.01464,-7.71991c0,0 0.3041,-1.21639 1.52049,-0.91229c1.21639,0.3041 0.91229,1.52049 0.91229,1.52049c-0.94279,3.46199 -4.79326,6.09961 -7.38915,8.60501c-0.12163,0.36014 -0.42333,0.80679 -1.17168,0.80679c-1.25383,0 -1.25383,-1.25383 -1.25383,-1.25383z" fill="#07dc00" stroke="none" stroke-width="0.5"/><path d="M231.04364,152.74697c0.47859,-0.36886 2.73362,-2.33598 3.63782,-2.33598c1.33165,0 3.37201,-1.71909 4.42001,-1.10316c1.90134,1.11745 1.08832,3.88709 1.08832,6.1325c0,1.84768 -0.70489,2.48683 -1.47646,3.42934c-0.68291,0.83421 -1.95296,2.07899 -3.71254,2.07899c-3.7476,0 -5.18901,0.52932 -5.18901,-2.95374c0,-2.64269 -0.27317,-4.088 1.23186,-5.24795z" fill="none" stroke="#000000" stroke-width="1.5"/></g><g><path d="M233.04726,159.82492c0,4.16691 -1.72441,3.53366 -6.20779,3.53366c-2.10504,0 -3.62445,-1.48918 -4.44144,-2.48717c-0.92306,-1.12756 -1.76635,-1.89219 -1.76635,-4.10264c0,-2.68626 -0.97264,-5.99968 1.302,-7.33653c1.25376,-0.73685 3.69472,1.31975 5.28781,1.31975c1.08172,0 3.77949,2.35333 4.35205,2.79461c1.80052,1.38769 1.47372,3.11676 1.47372,6.27831z" fill="#09e800" stroke="#000000" stroke-width="1.5"/><path d="M231.32818,162.9485c-0.89528,0 -1.25621,-0.53435 -1.40172,-0.9652c-3.10556,-2.99729 -7.71201,-6.15277 -8.83991,-10.29447c0,0 -0.3638,-1.45521 1.09141,-1.81902c1.45521,-0.3638 1.81902,1.09141 1.81902,1.09141c0.74318,3.44652 5.9181,6.76185 8.39185,9.23561l0.43934,1.25167c0,0 0,1.5 -1.5,1.5z" fill="#07dc00" stroke="none" stroke-width="0.5"/><path d="M232.89002,159.85869c0,4.16691 -1.72441,3.53366 -6.20779,3.53366c-2.10504,0 -3.62445,-1.48918 -4.44144,-2.48717c-0.92306,-1.12756 -1.76635,-1.89219 -1.76635,-4.10264c0,-2.68626 -0.97264,-5.99968 1.302,-7.33653c1.25376,-0.73685 3.69472,1.31975 5.28781,1.31975c1.08172,0 3.77949,2.35333 4.35205,2.79461c1.80052,1.38769 1.47372,3.11676 1.47372,6.27831z" fill="none" stroke="#000000" stroke-width="1.5"/></g><path d="M264.66663,179.99997c0,13.1628 -11.0436,23.8334 -24.6666,23.8334c-13.623,0 -24.6667,-10.6706 -24.6667,-23.8334c0,-13.1628 11.0436,-23.8333 24.6667,-23.8333c13.623,0 24.6666,10.6705 24.6666,23.8333z" fill="#ff9400" stroke="#000000" stroke-width="2"/><path d="M226.45813,198.90077c-2.4503,-0.4957 -1.9546,-2.9461 -1.9546,-2.9461l0.4677,-2.2681c0.903,-3.1078 1.3015,-6.0778 3.9592,-8.3282c1.8884,-1.5989 3.8695,-1.9215 6.1373,-2.4803c6.15,-1.5155 14.2909,-1.5616 19.7497,2.2611c0.1523,0.1066 3.7762,3.5177 4.0423,3.7675c0,0 1.8225,1.7113 0.1113,3.5338c-1.7113,1.8225 -3.5338,0.1112 -3.5338,0.1112c-1.1878,-1.1153 -2.2353,-2.3974 -3.5494,-3.3607c-4.1467,-3.0394 -10.9885,-2.5751 -15.6333,-1.4558c-1.3426,0.3235 -2.9846,0.5519 -4.1251,1.466c-1.6188,1.2974 -1.8251,4.0506 -2.3568,5.8804l-0.3684,1.8646c0,0 -0.4957,2.4503 -2.9461,1.9546z" data-paper-data="{&quot;index&quot;:null}" fill="#000000" stroke="none" stroke-width="0.5"/><path d="M234.67133,165.17747c1.5244,1.521 6.8351,2.4664 5.1981,5.7406c-0.5335,1.0668 -1.5033,1.3488 -2.6394,1.169c0.0241,0.2682 0.0366,0.544 0.0366,0.8254c0,2.6579 -1.1192,4.8125 -2.5,4.8125c-1.3807,0 -2.5,-2.1546 -2.5,-4.8125c0,-1.1223 0.1996,-2.1549 0.5342,-2.9735c-0.7418,-0.539 -1.4134,-1.1061 -1.9398,-1.6115c-0.4562,-0.2702 -0.8191,-0.6813 -1.0287,-1.1734c-0.1281,-0.3007 -0.199,-0.6316 -0.199,-0.9791c0,-1.3807 1.1193,-2.5 2.5,-2.5c0.3054,-0.2364 0.8076,0.0027 1.2873,0.3565c0.2211,0.1331 0.42,0.2994 0.5896,0.4921c0.3231,0.297 0.5769,0.5699 0.6611,0.6539z" fill="#000000" stroke="none" stroke-width="0.5"/><path d="M248.30233,163.77357c0.1696,-0.1927 0.3685,-0.3591 0.5896,-0.4921c0.4797,-0.3538 0.9819,-0.5929 1.2873,-0.3565c1.3807,0 2.5,1.1193 2.5,2.5c0,0.3475 -0.0709,0.6784 -0.199,0.9791c-0.2096,0.4921 -0.5725,0.9032 -1.0288,1.1734c-0.5263,0.5054 -1.1979,1.0724 -1.9397,1.6115c0.3346,0.8186 0.5341,1.8512 0.5341,2.9735c0,2.6579 -1.1193,4.8125 -2.5,4.8125c-1.3807,0 -2.5,-2.1546 -2.5,-4.8125c0,-0.2814 0.0126,-0.5572 0.0367,-0.8254c-1.1361,0.1798 -2.106,-0.1022 -2.6394,-1.169c-1.6371,-3.2742 3.6737,-4.2197 5.1981,-5.7407c0.0842,-0.084 0.338,-0.3568 0.6611,-0.6538z" data-paper-data="{&quot;index&quot;:null}" fill="#000000" stroke="none" stroke-width="0.5"/></g></g></svg>