<svg version="1.1" xmlns="http://www.w3.org/2000/svg" xmlns:xlink="http://www.w3.org/1999/xlink" width="51.3333" height="49.6667" viewBox="0,0,51.3333,49.6667"><g transform="translate(-214.33335,-155.16665)"><g data-paper-data="{&quot;isPaintingLayer&quot;:true}" fill-rule="nonzero" stroke-linecap="butt" stroke-linejoin="miter" stroke-miterlimit="10" stroke-dasharray="" stroke-dashoffset="0" style="mix-blend-mode: normal"><path d="M264.66665,179.99995c0,13.1628 -11.0436,23.8334 -24.6666,23.8334c-13.623,0 -24.6667,-10.6706 -24.6667,-23.8334c0,-13.1628 11.0436,-23.8333 24.6667,-23.8333c13.623,0 24.6666,10.6705 24.6666,23.8333z" fill="#9966ff" stroke="#000000" stroke-width="2"/><path d="M233.76665,172.98687c0,-1.44318 1.1193,-2.61313 2.5,-2.61313c1.3808,0 2.5,1.16995 2.5,2.61313c0,1.44318 -1.1192,2.61313 -2.5,2.61313c-1.3807,0 -2.5,-1.16995 -2.5,-2.61313z" fill="#000000" stroke="none" stroke-width="0.5"/><path d="M248.43335,172.7667c0,-1.3807 1.1193,-2.5 2.5,-2.5c1.3807,0 2.5,1.1193 2.5,2.5c0,1.3807 -1.1193,2.5 -2.5,2.5c-1.3807,0 -2.5,-1.1193 -2.5,-2.5z" fill="#000000" stroke="none" stroke-width="0.5"/><path d="M249.27691,187.01426c0,5.56086 -2.22866,10.06883 -4.97785,10.06883c-2.74919,0 -4.97786,-4.50797 -4.97786,-10.06883c0,-5.56086 2.22867,-10.06885 4.97786,-10.06885c2.74919,0 4.97785,4.50799 4.97785,10.06885z" fill="#000000" stroke="none" stroke-width="0"/></g></g></svg>