<svg version="1.1" xmlns="http://www.w3.org/2000/svg" xmlns:xlink="http://www.w3.org/1999/xlink" width="81.37651" height="72.73849" viewBox="0,0,81.37651,72.73849"><g transform="translate(-203.34035,-146.10213)"><g data-paper-data="{&quot;isPaintingLayer&quot;:true}" fill-rule="nonzero" stroke-linecap="butt" stroke-linejoin="miter" stroke-miterlimit="10" stroke-dasharray="" stroke-dashoffset="0" style="mix-blend-mode: normal"><path d="M204.60028,211.90968l0.67529,-0.45098c2.20379,-2.65902 4.73745,-4.42382 6.76614,-7.18952c5.53917,-8.00101 12.91702,-15.07375 19.82697,-21.94991c2.6586,-2.64561 5.8914,-4.36798 8.44004,-7.06174c6.1009,-6.44829 11.19936,-14.91292 18.87126,-19.39554c0,0 2.7564,-1.55048 4.30688,1.20592c1.55048,2.7564 -1.20593,4.30688 -1.20593,4.30688c-7.03627,3.74715 -11.84076,12.44644 -17.38474,18.23728c-1.64894,1.72237 -3.75336,2.94205 -5.61209,4.43558c-3.76797,3.02763 -6.89755,6.99795 -10.22613,10.48501c-4.22433,4.42546 -8.39613,8.39528 -11.88506,13.43485c-2.19644,2.88085 -4.76158,4.71308 -7.00196,7.49646l-1.61939,1.38476c0,0 -2.46953,1.97562 -4.44516,-0.4939c-1.97563,-2.46953 0.49391,-4.44516 0.49391,-4.44516z" data-paper-data="{&quot;index&quot;:null}" fill="#dedede" stroke="none" stroke-width="0.5"/><g data-paper-data="{&quot;index&quot;:null}" fill="#9a6800" stroke="none" stroke-width="0.5"><path d="M271.7813,150.85377l-0.72631,0.17882c-2.34979,2.52633 -3.17281,4.48539 -6.1559,6.42588c0,0 -2.12914,1.31024 -3.43939,-0.8189c-1.31025,-2.12914 0.81891,-3.43939 0.81891,-3.43939c2.40268,-1.3479 3.19424,-3.45284 5.09061,-5.54621l2.17601,-1.27233c0,0 2.23607,-1.11804 3.35411,1.11803c1.11803,2.23607 -1.11804,3.3541 -1.11804,3.3541z"/><path d="M264.02643,158.06003l-0.37318,-0.60871c-1.40054,-0.93594 -2.84938,-1.80286 -4.33338,-2.59987c0,0 -2.20117,-1.18525 -1.01592,-3.38643c1.18525,-2.20118 3.38642,-1.01592 3.38642,-1.01592c1.62026,0.87452 3.20338,1.82221 4.73639,2.84198l1.44078,1.56804c0,0 1.60046,1.92056 -0.32009,3.52102c-1.92055,1.60046 -3.52101,-0.32009 -3.52101,-0.32009z"/></g><path d="M277.091,217.5737c-2.01515,2.51893 -4.53409,0.50378 -4.53409,0.50378l-1.65178,-1.41247c-2.2852,-2.83906 -4.90167,-4.70794 -7.14205,-7.64643c-3.55873,-5.14038 -7.81399,-9.18962 -12.12282,-13.70361c-3.39517,-3.55683 -6.58735,-7.60657 -10.4307,-10.69477c-1.89593,-1.52341 -4.04243,-2.76749 -5.72436,-4.52432c-5.65489,-5.90668 -10.55549,-14.78001 -17.73253,-18.60212c0,0 -2.81154,-1.58149 -1.23005,-4.39304c1.58149,-2.81154 4.39304,-1.23004 4.39304,-1.23004c7.82538,4.57229 13.02583,13.20627 19.24878,19.78354c2.59962,2.74763 5.89708,4.50447 8.60888,7.20301c7.04817,7.01372 14.57362,14.22795 20.2236,22.38902c2.06927,2.82104 4.65363,4.62114 6.9015,7.33335l0.6888,0.46c0,0 2.51895,2.01515 0.50379,4.53409z" fill="#dedede" stroke="none" stroke-width="0.5"/><path d="M264.04443,183.41606c0,13.36368 -10.76506,24.19708 -24.04443,24.19708c-13.27937,0 -24.04443,-10.8334 -24.04443,-24.19708c0,-13.36368 10.76506,-24.19708 24.04443,-24.19708c13.27937,0 24.04443,10.8334 24.04443,24.19708z" fill="#ff0000" stroke="#000000" stroke-width="2.5"/><path d="M278.44211,154.20246c1.97338,1.53485 0.43853,3.50823 0.43853,3.50823l-1.74314,2.09771c-0.9359,0.65888 -1.73294,1.58303 -2.80769,1.97664c-2.45656,0.89967 -3.54186,0.0192 -5.8413,0.32064c-3.21002,0.42082 -6.92765,0.52637 -9.95934,1.85611c1.81626,0.00418 3.65537,0.08009 5.41705,-0.1139c2.84461,-0.31323 5.6311,-0.94396 8.55023,-0.53937c3.3361,0.46239 4.61284,2.09224 7.85733,1.97662l0.69592,-0.64305c0,0 2.23607,-1.11804 3.35411,1.11803c1.11804,2.23607 -1.11804,3.35411 -1.11804,3.35411l-2.93199,1.17091c-1.24539,-0.02888 -2.52333,0.1977 -3.73617,-0.08664c-1.65823,-0.38876 -3.04016,-1.73184 -4.73208,-1.92744c-2.56817,-0.2969 -4.91399,0.28799 -7.41256,0.549c-1.46604,0.15315 -2.97215,0.13726 -4.47667,0.12682c-0.0038,0.10524 -0.01412,0.20882 -0.03054,0.31035h0.43453c0,0 2.5,0 2.5,2.5c0,2.5 -2.5,2.5 -2.5,2.5h-2.53954c-9.01067,0 -17.76034,1.96746 -26.67625,3.24026c-4.69459,0.67018 -8.14133,1.52442 -12.86608,0.50951c0,0 -2.44046,-0.54233 -1.89814,-2.9828c0.35869,-1.61409 1.54769,-1.92342 2.31178,-1.94782c-0.2383,-0.3829 -0.37597,-0.83495 -0.37597,-1.31915c0,-1.38071 1.11929,-2.5 2.5,-2.5c0.11561,0 0.22939,0.00785 0.34082,0.02304c0.72878,-1.12101 1.7982,-1.99609 3.03741,-2.63768c1.09498,-1.12607 2.2295,-2.21423 3.37958,-3.36475c0,0 0.69891,-0.69891 1.65727,-0.77835l0.98782,-0.59693c0,0 1.05581,-0.5279 2.07918,-0.13272l2.22982,-1.3722c0.38811,-0.24789 0.84923,-0.39157 1.34391,-0.39157c0.0435,0 0.08675,0.00111 0.1297,0.00331l0.52685,-0.39514c0.42123,-0.32311 0.94829,-0.51515 1.5202,-0.51515c0.97912,0 1.82678,0.56286 2.23704,1.38268c0.44262,-0.7022 1.22505,-1.16872 2.11645,-1.16872c0.59548,0 1.14234,0.2082 1.57174,0.55577c0.0797,-0.00766 0.1605,-0.01158 0.24221,-0.01158c1.06676,0 1.97746,0.66814 2.33647,1.60877c0.39488,0.08078 0.78087,0.17739 1.15484,0.29429c1.48319,0.46362 2.77799,1.03697 4.13531,1.5474c0.1529,-0.96672 0.93106,-1.61519 0.93106,-1.61519c4.35113,-3.4995 9.71687,-3.86941 15.09829,-4.55347c2.94651,-0.37455 3.88864,0.61717 6.22543,-1.33062l0.79638,-1.16741c0,0 1.53485,-1.97338 3.50823,-0.43853z" fill="#000000" stroke="none" stroke-width="0.5"/><path d="M248.97237,207.30375c-0.91152,0 -1.7091,-0.48783 -2.1459,-1.21665c-0.15152,0.20924 -0.33467,0.39408 -0.54241,0.54752c-0.57221,0.94992 -1.74864,1.17049 -1.74864,1.17049c-3.62117,0.66635 -7.47116,1.21214 -10.99576,-0.39479c-1.75656,-0.80085 -2.91908,-2.55533 -4.56534,-3.56367c-3.30398,-2.0237 -5.01564,-2.47586 -7.38672,-5.78432l-1.18745,-2.55047c0,0 -0.21014,-0.4553 -0.23828,-1.05218c-0.65574,-0.37465 -1.12548,-1.03767 -1.23646,-1.81631c-0.43923,-0.17152 -2.19857,-1.00199 -1.54389,-3.09694c0.74569,-2.3862 3.13189,-1.64051 3.13189,-1.64051c6.55257,2.1252 13.88325,0.04959 20.58025,-0.64442c5.92987,-0.61452 13.23431,-0.46337 18.68462,-2.89515l1.89177,-0.20214c0,0 2.5,0 2.5,2.5c0,1.02925 -0.42374,1.63475 -0.92231,1.99097c0.67317,1.29083 -0.30327,2.59275 -0.30327,2.59275l-0.094,0.08246c0.16748,0.10032 0.33752,0.22687 0.50889,0.38396c1.84289,1.68931 0.15357,3.5322 0.15357,3.5322c-1.37403,1.4823 -2.91328,2.7416 -4.57307,3.80014c0.85005,2.20833 -1.36408,3.15725 -1.36408,3.15725c-1.67397,0.71115 -3.42012,1.33255 -5.20578,1.83793c0.00619,0.07174 0.00934,0.14435 0.00934,0.2177c0,1.10002 -0.71045,2.0341 -1.69753,2.36843c-0.44708,0.41911 -1.04828,0.67576 -1.70944,0.67576z" fill="#000000" stroke="none" stroke-width="0.5"/><path d="M227.42586,183.3991c0,-1.38071 1.11929,-2.5 2.5,-2.5c1.38071,0 2.5,1.11929 2.5,2.5c0,1.38071 -1.11929,2.5 -2.5,2.5c-1.38071,0 -2.5,-1.11929 -2.5,-2.5z" fill="#000000" stroke="none" stroke-width="0.5"/><path d="M246.47237,181.22236c0,-1.38071 1.11929,-2.5 2.5,-2.5c1.38071,0 2.5,1.11929 2.5,2.5c0,1.38071 -1.11929,2.5 -2.5,2.5c-1.38071,0 -2.5,-1.11929 -2.5,-2.5z" fill="#000000" stroke="none" stroke-width="0.5"/><g fill="#9a6800" stroke="none" stroke-width="0.5"><path d="M206.46654,149.2113c1.11803,-2.23607 3.3541,-1.11803 3.3541,-1.11803l2.17601,1.27234c1.89637,2.09337 2.68793,4.19831 5.09061,5.54621c0,0 2.12915,1.31024 0.8189,3.43939c-1.31024,2.12915 -3.43939,0.8189 -3.43939,0.8189c-2.98309,-1.94049 -3.80611,-3.89955 -6.1559,-6.42588l-0.72631,-0.17882c0,0 -2.23607,-1.11803 -1.11803,-3.3541z"/><path d="M211.81842,160.09175c-1.92056,-1.60046 -0.32009,-3.52102 -0.32009,-3.52102l1.44078,-1.56804c1.53301,-1.01977 3.11613,-1.96746 4.73639,-2.84198c0,0 2.20117,-1.18526 3.38642,1.01592c1.18525,2.20118 -1.01592,3.38643 -1.01592,3.38643c-1.484,0.79701 -2.93284,1.66394 -4.33338,2.59987l-0.37318,0.60871c0,0 -1.60046,1.92055 -3.52102,0.32009z"/></g></g></g></svg>