<svg version="1.1" xmlns="http://www.w3.org/2000/svg" xmlns:xlink="http://www.w3.org/1999/xlink" width="103.75924" height="67.57737" viewBox="0,0,103.75924,67.57737"><g transform="translate(-188.45325,-140.31518)"><g data-paper-data="{&quot;isPaintingLayer&quot;:true}" fill="#ffffff" fill-rule="nonzero" stroke-linecap="butt" stroke-linejoin="miter" stroke-miterlimit="10" stroke-dasharray="" stroke-dashoffset="0" style="mix-blend-mode: normal"><g stroke="#000000" stroke-width="1.5"><path d="M189.20325,180.92381c0,-14.48021 11.73853,-26.21874 26.21874,-26.21874c14.48021,0 26.21874,11.73853 26.21874,26.21874c0,14.48021 -11.73853,26.21874 -26.21874,26.21874c-14.48021,0 -26.21874,-11.73853 -26.21874,-26.21874z"/><path d="M211.61413,167.28392c0,-14.48021 11.73853,-26.21874 26.21874,-26.21874c14.48021,0 26.21874,11.73853 26.21874,26.21874c0,14.48021 -11.73853,26.21874 -26.21874,26.21874c-14.48021,0 -26.21874,-11.73853 -26.21874,-26.21874z"/><path d="M214.47975,180.90332c0,-14.48021 11.73853,-26.21874 26.21874,-26.21874c14.48021,0 26.21873,11.73853 26.21873,26.21874c0,14.48021 -11.73852,26.21874 -26.21873,26.21874c-14.48021,0 -26.21874,-11.73853 -26.21874,-26.21874z"/><path d="M239.02501,179.74193c0,-14.48021 11.73853,-26.21874 26.21874,-26.21874c14.48021,0 26.21874,11.73853 26.21874,26.21874c0,14.48021 -11.73853,26.21874 -26.21874,26.21874c-14.48021,0 -26.21874,-11.73853 -26.21874,-26.21874z"/></g><g stroke="none" stroke-width="0"><path d="M189.9386,180.75526c0,-14.30066 11.59298,-25.89364 25.89364,-25.89364c14.30066,0 25.89364,11.59298 25.89364,25.89364c0,14.30066 -11.59298,25.89364 -25.89364,25.89364c-14.30066,0 -25.89364,-11.59298 -25.89364,-25.89364z"/><path d="M212.07159,167.2845c0,-14.30066 11.59298,-25.89364 25.89364,-25.89364c14.30066,0 25.89363,11.59298 25.89363,25.89364c0,14.30066 -11.59297,25.89364 -25.89363,25.89364c-14.30066,0 -25.89364,-11.59298 -25.89364,-25.89364z"/><path d="M214.90168,180.73502c0,-14.30066 11.59298,-25.89364 25.89364,-25.89364c14.30066,0 25.89363,11.59298 25.89363,25.89364c0,14.30066 -11.59297,25.89364 -25.89363,25.89364c-14.30066,0 -25.89364,-11.59298 -25.89364,-25.89364z"/><path d="M239.14259,179.58803c0,-14.30066 11.59298,-25.89364 25.89364,-25.89364c14.30066,0 25.89363,11.59298 25.89363,25.89364c0,14.30066 -11.59297,25.89364 -25.89363,25.89364c-14.30066,0 -25.89364,-11.59298 -25.89364,-25.89364z"/></g></g></g></svg>