<svg version="1.1" xmlns="http://www.w3.org/2000/svg" xmlns:xlink="http://www.w3.org/1999/xlink" width="55.60783" height="63.47513" viewBox="0,0,55.60783,63.47513"><g transform="translate(-212.19609,-151.82878)"><g data-paper-data="{&quot;isPaintingLayer&quot;:true}" stroke-linejoin="miter" stroke-miterlimit="10" stroke-dasharray="" stroke-dashoffset="0" style="mix-blend-mode: normal"><path d="M213.6961,186.5c0,-15.07954 11.77666,-27.30391 26.30391,-27.30391c14.52725,0 26.30392,12.22438 26.30392,27.30391c0,15.07954 -11.77666,27.30391 -26.30392,27.30391c-14.52725,0 -26.30391,-12.22438 -26.30391,-27.30391z" fill="#965d00" fill-rule="nonzero" stroke="#fefefe" stroke-width="3" stroke-linecap="butt"/><path d="M251.9812,192.25316c0,0 4.05367,1.05748 4.75866,4.40616c0.70498,3.34868 -2.11496,9.39982 -13.04225,11.51478c-14.21722,2.93744 -20.97334,-5.52239 -17.03717,-11.74977c3.93617,-6.28612 10.69229,-0.93998 15.6272,-1.29247c4.22992,-0.29375 4.69991,-3.99492 9.69356,-2.87869z" fill="#ffffff" fill-rule="evenodd" stroke="none" stroke-width="1" stroke-linecap="butt"/><path d="M252.10746,183.0424c0,4.14214 -2.01472,7.5 -4.5,7.5c-2.48528,0 -4.5,-3.35786 -4.5,-7.5c0,-4.14214 2.01472,-7.5 4.5,-7.5c2.48528,0 4.5,3.35786 4.5,7.5z" fill="#ffffff" fill-rule="nonzero" stroke="none" stroke-width="0" stroke-linecap="butt"/><path d="M237.10746,182.87574c0,4.23418 -2.01472,7.66667 -4.5,7.66667c-2.48528,0 -4.5,-3.43248 -4.5,-7.66667c0,-4.23418 2.01472,-7.66667 4.5,-7.66667c2.48528,0 4.5,3.43248 4.5,7.66667z" fill="#ffffff" fill-rule="nonzero" stroke="none" stroke-width="0" stroke-linecap="butt"/><path d="M245.10746,191.22407c0,1.76013 -1.8617,4.78049 -4.43902,4.78049c-2.57733,0 -4.89431,-3.02036 -4.89431,-4.78049c0,-1.76013 2.08934,-1.36585 4.66666,-1.36585c2.57733,0 4.66667,-0.39427 4.66667,1.36585z" fill="#211d1e" fill-rule="nonzero" stroke="none" stroke-width="0" stroke-linecap="butt"/><path d="M234.44079,184.0424c0,2.85347 -0.74619,5.16667 -1.66667,5.16667c-0.92047,0 -1.66667,-2.3132 -1.66667,-5.16667c0,-2.85347 0.74619,-5.16667 1.66667,-5.16667c0.92047,0 1.66667,2.3132 1.66667,5.16667z" fill="#211d1e" fill-rule="nonzero" stroke="none" stroke-width="0" stroke-linecap="butt"/><path d="M248.10745,178.5424c0.92048,0 1.66667,2.3132 1.66667,5.16667c0,2.85347 -0.7462,5.16666 -1.66667,5.16666c-0.92048,0 -1.66666,-2.3132 -1.66666,-5.16666c0,-2.85347 0.74619,-5.16667 1.66666,-5.16667z" data-paper-data="{&quot;index&quot;:null}" fill="#211d1e" fill-rule="nonzero" stroke="none" stroke-width="0" stroke-linecap="butt"/><path d="M219.10746,195.5424c0,0 4.06513,-1.06434 5.2512,-0.7184c1.43345,0.41809 4.7488,1.38506 4.7488,1.38506" fill="none" fill-rule="nonzero" stroke="#000000" stroke-width="2" stroke-linecap="round"/><path d="M219.27412,200.20905c0,0 4.06513,-1.06434 5.2512,-0.7184c1.43345,0.41809 4.7488,1.38506 4.7488,1.38506" fill="none" fill-rule="nonzero" stroke="#000000" stroke-width="2" stroke-linecap="round"/><path d="M250.10746,195.54239c0,0 3.31535,-0.96697 4.7488,-1.38506c1.18607,-0.34594 5.2512,0.7184 5.2512,0.7184" data-paper-data="{&quot;index&quot;:null}" fill="none" fill-rule="nonzero" stroke="#000000" stroke-width="2" stroke-linecap="round"/><path d="M250.60746,200.7924c0,0 4.06513,-1.06434 5.2512,-0.7184c1.43345,0.41809 4.7488,1.38506 4.7488,1.38506" fill="none" fill-rule="nonzero" stroke="#000000" stroke-width="2" stroke-linecap="round"/><path d="M246.39913,202.57284c0,0 -4.36338,2.67208 -6.49803,2.69386c-1.92751,0.01967 -5.75197,-2.56886 -5.75197,-2.56886" fill="none" fill-rule="nonzero" stroke="#000000" stroke-width="1.5" stroke-linecap="round"/><path d="M233.88286,160.7694c2.25712,3.91277 1.16255,8.8181 -2.44482,10.95638c-3.60737,2.13826 -8.36147,0.69977 -10.61859,-3.213c-2.25712,-3.91277 0.30897,-14.79153 0.30897,-14.79153c0,0 10.49733,3.13539 12.75445,7.04815z" fill="#fefefe" fill-rule="nonzero" stroke="#965d00" stroke-width="3" stroke-linecap="butt"/><path d="M255.70122,153.60039c0,0 3.56873,11.40933 1.59771,15.78889c-1.97103,4.37957 -6.71189,6.33023 -10.58904,4.35695c-3.87714,-1.97329 -5.42236,-7.12328 -3.45135,-11.50285c1.09146,-2.42521 3.6007,-5.41988 6.28116,-7.27461c2.16006,-1.49463 4.43134,-2.24895 6.16151,-1.3684z" data-paper-data="{&quot;index&quot;:null}" fill="#fefefe" fill-rule="nonzero" stroke="#965d00" stroke-width="3" stroke-linecap="butt"/></g></g></svg>