<svg version="1.1" xmlns="http://www.w3.org/2000/svg" xmlns:xlink="http://www.w3.org/1999/xlink" width="58.08635" height="57.76316" viewBox="0,0,58.08635,57.76316"><g transform="translate(-210.95683,-151.11842)"><g data-paper-data="{&quot;isPaintingLayer&quot;:true}" fill-rule="nonzero" stroke-linejoin="miter" stroke-miterlimit="10" stroke-dasharray="" stroke-dashoffset="0" style="mix-blend-mode: normal"><g><path d="M210.99986,167.8514c0,-9.24137 7.11556,-16.73298 15.89305,-16.73298c8.77749,0 15.89305,7.49161 15.89305,16.73298c0,9.24137 -7.11556,16.73298 -15.89305,16.73298c-8.77749,0 -15.89305,-7.49161 -15.89305,-16.73298z" data-paper-data="{&quot;origPos&quot;:null}" fill="#ffffff" stroke="none" stroke-width="NaN" stroke-linecap="butt"/><path d="M210.95683,192.1033c0,-9.24137 7.11557,-16.73298 15.89306,-16.73298c8.77749,0 15.89305,7.49161 15.89305,16.73298c0,9.24137 -7.11556,16.73297 -15.89305,16.73297c-8.77749,0 -15.89306,-7.4916 -15.89306,-16.73297z" data-paper-data="{&quot;origPos&quot;:null}" fill="#ffffff" stroke="none" stroke-width="NaN" stroke-linecap="butt"/><path d="M210.99986,192.83626v-25.90173h14.58678v25.90173z" data-paper-data="{&quot;origPos&quot;:null}" fill="#ffffff" stroke="none" stroke-width="0" stroke-linecap="butt"/><path d="M236.47228,185.27203v-8.02266h9.14395v8.02266z" data-paper-data="{&quot;origPos&quot;:null}" fill="#ffffff" stroke="none" stroke-width="0" stroke-linecap="butt"/><path d="M224.28035,208.88158v-15.8161h28.95584v15.8161z" data-paper-data="{&quot;origPos&quot;:null}" fill="#ffffff" stroke="none" stroke-width="0" stroke-linecap="butt"/><path d="M227.32833,164.41312v-13.29469h27.21413v13.29469z" data-paper-data="{&quot;origPos&quot;:null}" fill="#ffffff" stroke="none" stroke-width="0" stroke-linecap="butt"/><path d="M253.15013,184.76829c-8.77749,0 -15.89306,-7.4916 -15.89306,-16.73297c0,-9.24137 7.11557,-16.73298 15.89306,-16.73298c8.77749,0 15.89305,7.49161 15.89305,16.73298c0,9.24137 -7.11556,16.73297 -15.89305,16.73297z" data-paper-data="{&quot;origPos&quot;:null,&quot;index&quot;:null}" fill="#ffffff" stroke="none" stroke-width="NaN" stroke-linecap="butt"/><path d="M252.97543,208.79096c-8.77749,0 -15.89305,-7.4916 -15.89305,-16.73297c0,-9.24137 7.11556,-16.73298 15.89305,-16.73298c8.77749,0 15.89306,7.49161 15.89306,16.73298c0,9.24137 -7.11557,16.73297 -15.89306,16.73297z" data-paper-data="{&quot;origPos&quot;:null,&quot;index&quot;:null}" fill="#ffffff" stroke="none" stroke-width="NaN" stroke-linecap="butt"/><path d="M254.45639,193.02016v-25.90172h14.58677v25.90172z" data-paper-data="{&quot;index&quot;:null,&quot;origPos&quot;:null}" fill="#ffffff" stroke="none" stroke-width="0" stroke-linecap="butt"/><path d="M229.81737,191.66064v-23" fill="#000000" stroke="#000000" stroke-width="7.5" stroke-linecap="round"/><path d="M248.65707,168.63903v23" fill="none" stroke="#000000" stroke-width="7.5" stroke-linecap="round"/></g></g></g></svg>