<svg version="1.1" xmlns="http://www.w3.org/2000/svg" xmlns:xlink="http://www.w3.org/1999/xlink" width="51.3333" height="55.36451" viewBox="0,0,51.3333,55.36451"><g transform="translate(-214.33333,-149.46886)"><g data-paper-data="{&quot;isPaintingLayer&quot;:true}" fill-rule="nonzero" stroke-linecap="butt" stroke-linejoin="miter" stroke-miterlimit="10" stroke-dasharray="" stroke-dashoffset="0" style="mix-blend-mode: normal"><g><path d="M232.90071,159.58213c-0.07764,0.05031 -0.29302,0.17967 -0.57711,0.26602c-0.66263,0.59048 -1.58661,0.38676 -1.58661,0.38676c-2.25028,-0.49712 -4.59749,-0.66487 -5.63695,-3.04291c-0.45102,-1.03182 -1.32337,-2.40118 -0.60608,-3.35685c1.65065,-2.19921 4.46008,-0.83196 5.88323,0.02599c0.29508,0.17789 0.61959,0.34388 0.90675,0.54402c0.25433,-0.39289 0.60825,-0.74742 0.90979,-1.10648c1.1314,-1.34725 5.34162,-4.66084 7.1988,-2.75073c2.73712,2.81512 -2.56114,7.26933 -4.78093,8.4589c-0.53342,0.28585 -1.13187,0.40578 -1.71089,0.57528z" fill="#b2ffa9" stroke="#000000" stroke-width="1"/><path d="M229.64237,157.36457c0.09639,-0.00262 0.29797,0.02236 0.32935,0.27141c0.04149,0.32932 -0.29756,0.39178 -0.29756,0.39178l-0.28012,-0.01579c-1.61185,-0.80349 -3.88095,-1.77847 -4.57097,-3.57517c0,0 -0.10718,-0.31068 0.21715,-0.43651c0.32434,-0.12583 0.43152,0.18484 0.43152,0.18484c0.43194,1.55474 2.81778,2.51604 4.17063,3.17943z" fill="#a1e899" stroke="none" stroke-width="0.5"/><path d="M239.19013,151.38429c0.04149,0.32932 -0.29756,0.39178 -0.29756,0.39178l0.03176,-0.05387c-1.17548,0.95303 -2.52839,1.52793 -3.70906,2.49492c-1.41487,1.88997 -3.28243,3.39151 -4.25046,5.58412c0,0 -0.13886,0.31453 -0.45095,0.19865c-0.31209,-0.11588 -0.17323,-0.4304 -0.17323,-0.4304c1.00093,-2.26711 2.90176,-3.85532 4.39191,-5.79463c1.19208,-0.99608 2.6126,-1.56673 3.77174,-2.55316l0.3053,-0.10426c0,0 0.33906,-0.06246 0.38055,0.26686z" fill="#a1e899" stroke="none" stroke-width="0.5"/><path d="M230.31997,160.00348c-0.33568,0.08356 -0.39894,-0.24105 -0.39894,-0.24105l-0.01276,-0.06547c-0.26881,-1.41383 0.09301,-4.2379 1.07344,-5.41345c0,0 0.23058,-0.26161 0.4826,-0.05206c0.25202,0.20955 0.02143,0.47117 0.02143,0.47117c-0.84862,0.87587 -1.12947,3.71431 -0.90611,4.82723l0.01276,0.06547c0,0 0.06326,0.32461 -0.27241,0.40817z" fill="#000000" stroke="none" stroke-width="0.5"/></g><path d="M264.66663,179.99997c0,13.1628 -11.0436,23.8334 -24.6666,23.8334c-13.623,0 -24.6667,-10.6706 -24.6667,-23.8334c0,-13.1628 11.0436,-23.8333 24.6667,-23.8333c13.623,0 24.6666,10.6705 24.6666,23.8333z" fill="#ff9400" stroke="#000000" stroke-width="2"/><path d="M226.45813,198.90077c-2.4503,-0.4957 -1.9546,-2.9461 -1.9546,-2.9461l0.4677,-2.2681c0.903,-3.1078 1.3015,-6.0778 3.9592,-8.3282c1.8884,-1.5989 3.8695,-1.9215 6.1373,-2.4803c6.15,-1.5155 14.2909,-1.5616 19.7497,2.2611c0.1523,0.1066 3.7762,3.5177 4.0423,3.7675c0,0 1.8225,1.7113 0.1113,3.5338c-1.7113,1.8225 -3.5338,0.1112 -3.5338,0.1112c-1.1878,-1.1153 -2.2353,-2.3974 -3.5494,-3.3607c-4.1467,-3.0394 -10.9885,-2.5751 -15.6333,-1.4558c-1.3426,0.3235 -2.9846,0.5519 -4.1251,1.466c-1.6188,1.2974 -1.8251,4.0506 -2.3568,5.8804l-0.3684,1.8646c0,0 -0.4957,2.4503 -2.9461,1.9546z" data-paper-data="{&quot;index&quot;:null}" fill="#000000" stroke="none" stroke-width="0.5"/><path d="M234.67133,165.17747c1.5244,1.521 6.8351,2.4664 5.1981,5.7406c-0.5335,1.0668 -1.5033,1.3488 -2.6394,1.169c0.0241,0.2682 0.0366,0.544 0.0366,0.8254c0,2.6579 -1.1192,4.8125 -2.5,4.8125c-1.3807,0 -2.5,-2.1546 -2.5,-4.8125c0,-1.1223 0.1996,-2.1549 0.5342,-2.9735c-0.7418,-0.539 -1.4134,-1.1061 -1.9398,-1.6115c-0.4562,-0.2702 -0.8191,-0.6813 -1.0287,-1.1734c-0.1281,-0.3007 -0.199,-0.6316 -0.199,-0.9791c0,-1.3807 1.1193,-2.5 2.5,-2.5c0.3054,-0.2364 0.8076,0.0027 1.2873,0.3565c0.2211,0.1331 0.42,0.2994 0.5896,0.4921c0.3231,0.297 0.5769,0.5699 0.6611,0.6539z" fill="#000000" stroke="none" stroke-width="0.5"/><path d="M248.30233,163.77357c0.1696,-0.1927 0.3685,-0.3591 0.5896,-0.4921c0.4797,-0.3538 0.9819,-0.5929 1.2873,-0.3565c1.3807,0 2.5,1.1193 2.5,2.5c0,0.3475 -0.0709,0.6784 -0.199,0.9791c-0.2096,0.4921 -0.5725,0.9032 -1.0288,1.1734c-0.5263,0.5054 -1.1979,1.0724 -1.9397,1.6115c0.3346,0.8186 0.5341,1.8512 0.5341,2.9735c0,2.6579 -1.1193,4.8125 -2.5,4.8125c-1.3807,0 -2.5,-2.1546 -2.5,-4.8125c0,-0.2814 0.0126,-0.5572 0.0367,-0.8254c-1.1361,0.1798 -2.106,-0.1022 -2.6394,-1.169c-1.6371,-3.2742 3.6737,-4.2197 5.1981,-5.7407c0.0842,-0.084 0.338,-0.3568 0.6611,-0.6538z" data-paper-data="{&quot;index&quot;:null}" fill="#000000" stroke="none" stroke-width="0.5"/></g></g></svg>