<svg xmlns="http://www.w3.org/2000/svg" xmlns:xlink="http://www.w3.org/1999/xlink" version="1.1" width="51.33334" height="49.66666" viewBox="0,0,51.33334,49.66666"><g><g data-paper-data="{&quot;isPaintingLayer&quot;:true}" fill-rule="nonzero" stroke-linecap="butt" stroke-linejoin="miter" stroke-miterlimit="10" stroke-dasharray="" stroke-dashoffset="0" style="mix-blend-mode: normal"><path d="M 50.3333 24.8333 C 50.3333 37.9961 39.2897 48.6667 25.6667 48.6667 C 12.0437 48.6667 1 37.9961 1 24.8333 C 1 11.6705 12.0436 1 25.6667 1 C 39.2897 1 50.3333 11.6705 50.3333 24.8333 Z " fill="#ff9400" stroke="#000000" stroke-width="2"/><path d="M 12.1248 43.7341 C 9.6745 43.2384 10.1702 40.788 10.1702 40.788 L 10.6379 38.5199 C 11.5409 35.4121 11.9394 32.4421 14.5971 30.1917 C 16.4855 28.5928 18.4666 28.2702 20.7344 27.7114 C 26.8844 26.1959 35.0253 26.1498 40.4841 29.9725 C 40.6364 30.0791 44.2603 33.4902 44.5264 33.74 C 44.5264 33.74 46.3489 35.4513 44.6377 37.2738 C 42.9264 39.0963 41.1039 37.385 41.1039 37.385 C 39.9161 36.2697 38.8686 34.9876 37.5545 34.0243 C 33.4078 30.9849 26.566 31.4492 21.9212 32.5685 C 20.5786 32.892 18.9366 33.1204 17.7961 34.0345 C 16.1773 35.3319 15.971 38.0851 15.4393 39.9149 L 15.0709 41.7795 C 15.0709 41.7795 14.5752 44.2298 12.1248 43.7341 Z " data-paper-data="{&quot;index&quot;:null}" fill="#000000" stroke="none" stroke-width="0.5"/><path d="M 20.338 10.0108 C 21.8624 11.5318 27.1731 12.4772 25.5361 15.7514 C 25.0026 16.8182 24.0328 17.1002 22.8967 16.9204 C 22.9208 17.1886 22.9333 17.4644 22.9333 17.7458 C 22.9333 20.4037 21.8141 22.5583 20.4333 22.5583 C 19.0526 22.5583 17.9333 20.4037 17.9333 17.7458 C 17.9333 16.6235 18.1329 15.5909 18.4675 14.7723 C 17.7257 14.2333 17.0541 13.6662 16.5277 13.1608 C 16.0715 12.8906 15.7086 12.4795 15.499 11.9874 C 15.3709 11.6867 15.3 11.3558 15.3 11.0083 C 15.3 9.6276 16.4193 8.5083 17.8 8.5083 C 18.1054 8.2719 18.6076 8.511 19.0873 8.8648 C 19.3084 8.9979 19.5073 9.1642 19.6769 9.3569 C 20 9.6539 20.2538 9.9268 20.338 10.0108 Z " fill="#000000" stroke="none" stroke-width="0.5"/><path d="M 33.969 8.6069 C 34.1386 8.4142 34.3375 8.2478 34.5586 8.1148 C 35.0383 7.761 35.5405 7.5219 35.8459 7.7583 C 37.2266 7.7583 38.3459 8.8776 38.3459 10.2583 C 38.3459 10.6058 38.275 10.9367 38.1469 11.2374 C 37.9373 11.7295 37.5744 12.1406 37.1181 12.4108 C 36.5918 12.9162 35.9202 13.4832 35.1784 14.0223 C 35.513 14.8409 35.7125 15.8735 35.7125 16.9958 C 35.7125 19.6537 34.5932 21.8083 33.2125 21.8083 C 31.8318 21.8083 30.7125 19.6537 30.7125 16.9958 C 30.7125 16.7144 30.7251 16.4386 30.7492 16.1704 C 29.6131 16.3502 28.6432 16.0682 28.1098 15.0014 C 26.4727 11.7272 31.7835 10.7817 33.3079 9.2607 C 33.3921 9.1767 33.6459 8.9039 33.969 8.6069 Z " data-paper-data="{&quot;index&quot;:null}" fill="#000000" stroke="none" stroke-width="0.5"/></g></g></svg>