<svg version="1.1" xmlns="http://www.w3.org/2000/svg" xmlns:xlink="http://www.w3.org/1999/xlink" width="51.3333" height="55.98407" viewBox="0,0,51.3333,55.98407"><g transform="translate(-214.33333,-148.8493)"><g data-paper-data="{&quot;isPaintingLayer&quot;:true}" fill-rule="nonzero" stroke-linecap="butt" stroke-linejoin="miter" stroke-miterlimit="10" stroke-dasharray="" stroke-dashoffset="0" style="mix-blend-mode: normal"><g stroke="none" stroke-width="0.5"><path d="M236.33223,157.51817c-1.09252,0.39648 -2.32527,-0.01227 -2.32527,-0.01227c-3.35864,-1.24981 -4.09395,-0.93116 -4.84405,-3.8479c-0.97162,-3.77812 4.24818,-6.03909 8.65342,-2.99018c0.23459,0.16236 0.41542,0.34813 0.56349,0.54816c1.8438,-0.92365 4.66524,-1.62964 5.93594,-1.12711c5.78916,2.28948 -0.59112,5.86351 -3.22666,6.88605l-1.51101,0.72878c0,0 -1.81929,0.86178 -3.24586,-0.18553z" fill="#5ae075"/><path d="M232.9375,149.88872l-0.01214,0.0845c0.33139,1.12519 1.03311,2.8282 2.19048,3.80936c0.74812,-0.92841 1.71064,-1.81335 2.74748,-2.47626c-1.68316,-0.45446 -2.83743,-2.11245 -4.99186,-1.60793c0.06603,0.09768 0.06603,0.19032 0.06603,0.19032zM244.87944,151.09366c-2.40135,1.58496 -4.78581,3.63076 -6.81694,5.42673c0,0 -0.375,0.33158 -0.875,0.0829c-0.5,-0.24869 -0.125,-0.58027 -0.125,-0.58027c2.07185,-1.83198 4.49401,-3.89123 6.93306,-5.51551l0.0318,-0.0211c-0.78653,-0.04056 -1.93956,0.20469 -2.98087,0.45342c-0.10483,0.05397 -0.206,0.07633 -0.206,0.07633l-0.39409,0.08636c-2.59625,0.67307 -5.64345,4.1291 -5.60712,5.96261c0,0 0,0.41448 -0.625,0.41448c-0.20129,0 -0.33776,-0.043 -0.43027,-0.10129c-0.26846,0.17524 -0.65899,0.07164 -0.65899,0.07164c-4.61057,-1.22544 -5.26036,-6.37592 -1.38218,-8.31645c1.81814,-0.57757 3.49433,-0.20176 5.08573,0.47369c0.50399,0.21391 1.19932,1.0541 1.89999,0.98195c0.27091,-0.02789 0.56167,-0.07663 0.86624,-0.13739c0.12922,-0.04434 0.25842,-0.08408 0.38736,-0.11891l0.46305,-0.10311c0,0 0.10472,-0.02315 0.24081,-0.0208c2.0028,-0.46855 4.26203,-1.01013 5.40515,0.37424c0.60719,1.98392 0.32611,4.54944 -2.74024,5.62109l-0.69935,0.12612c0,0 -0.02251,0.00373 -0.05993,0.00688c-0.1558,0.0753 -0.29583,0.16298 -0.40416,0.26603l-0.625,0.16579c0,0 -0.625,0 -0.625,-0.41448c0,-0.26598 0.25738,-0.36128 0.44181,-0.39542c0.3275,-0.2279 0.73407,-0.41046 1.15368,-0.55557c0,0 0.2562,-0.08496 0.50844,-0.02481c2.1645,-0.80348 2.2852,-2.89859 1.91893,-4.3388zM233.58926,156.68029c0,0 0.01272,0.00337 0.03363,0.01037c0.10119,-0.63796 0.4243,-1.36577 0.90268,-2.09846c-1.47654,-1.05241 -2.34268,-2.93385 -2.79018,-4.34206c-2.32646,1.79024 -1.45174,5.55513 1.85387,6.43015z" fill="#000000"/></g><g><path d="M264.66663,179.99997c0,13.1628 -11.0436,23.8334 -24.6666,23.8334c-13.623,0 -24.6667,-10.6706 -24.6667,-23.8334c0,-13.1628 11.0436,-23.8333 24.6667,-23.8333c13.623,0 24.6666,10.6705 24.6666,23.8333z" fill="#ff9400" stroke="#000000" stroke-width="2"/><path d="M226.45813,198.90077c-2.4503,-0.4957 -1.9546,-2.9461 -1.9546,-2.9461l0.4677,-2.2681c0.903,-3.1078 1.3015,-6.0778 3.9592,-8.3282c1.8884,-1.5989 3.8695,-1.9215 6.1373,-2.4803c6.15,-1.5155 14.2909,-1.5616 19.7497,2.2611c0.1523,0.1066 3.7762,3.5177 4.0423,3.7675c0,0 1.8225,1.7113 0.1113,3.5338c-1.7113,1.8225 -3.5338,0.1112 -3.5338,0.1112c-1.1878,-1.1153 -2.2353,-2.3974 -3.5494,-3.3607c-4.1467,-3.0394 -10.9885,-2.5751 -15.6333,-1.4558c-1.3426,0.3235 -2.9846,0.5519 -4.1251,1.466c-1.6188,1.2974 -1.8251,4.0506 -2.3568,5.8804l-0.3684,1.8646c0,0 -0.4957,2.4503 -2.9461,1.9546z" data-paper-data="{&quot;index&quot;:null}" fill="#000000" stroke="none" stroke-width="0.5"/><path d="M234.67133,165.17747c1.5244,1.521 6.8351,2.4664 5.1981,5.7406c-0.5335,1.0668 -1.5033,1.3488 -2.6394,1.169c0.0241,0.2682 0.0366,0.544 0.0366,0.8254c0,2.6579 -1.1192,4.8125 -2.5,4.8125c-1.3807,0 -2.5,-2.1546 -2.5,-4.8125c0,-1.1223 0.1996,-2.1549 0.5342,-2.9735c-0.7418,-0.539 -1.4134,-1.1061 -1.9398,-1.6115c-0.4562,-0.2702 -0.8191,-0.6813 -1.0287,-1.1734c-0.1281,-0.3007 -0.199,-0.6316 -0.199,-0.9791c0,-1.3807 1.1193,-2.5 2.5,-2.5c0.3054,-0.2364 0.8076,0.0027 1.2873,0.3565c0.2211,0.1331 0.42,0.2994 0.5896,0.4921c0.3231,0.297 0.5769,0.5699 0.6611,0.6539z" fill="#000000" stroke="none" stroke-width="0.5"/><path d="M248.30233,163.77357c0.1696,-0.1927 0.3685,-0.3591 0.5896,-0.4921c0.4797,-0.3538 0.9819,-0.5929 1.2873,-0.3565c1.3807,0 2.5,1.1193 2.5,2.5c0,0.3475 -0.0709,0.6784 -0.199,0.9791c-0.2096,0.4921 -0.5725,0.9032 -1.0288,1.1734c-0.5263,0.5054 -1.1979,1.0724 -1.9397,1.6115c0.3346,0.8186 0.5341,1.8512 0.5341,2.9735c0,2.6579 -1.1193,4.8125 -2.5,4.8125c-1.3807,0 -2.5,-2.1546 -2.5,-4.8125c0,-0.2814 0.0126,-0.5572 0.0367,-0.8254c-1.1361,0.1798 -2.106,-0.1022 -2.6394,-1.169c-1.6371,-3.2742 3.6737,-4.2197 5.1981,-5.7407c0.0842,-0.084 0.338,-0.3568 0.6611,-0.6538z" data-paper-data="{&quot;index&quot;:null}" fill="#000000" stroke="none" stroke-width="0.5"/></g></g></g></svg>